<svg width="208" height="23" viewBox="0 0 208 23" fill="none" xmlns="http://www.w3.org/2000/svg">
<path d="M16.464 7.672L14.856 14.224C14.696 14.912 14.616 15.344 14.616 15.52C14.616 16.24 15.072 16.6 15.984 16.6C16.784 16.6 17.576 16.304 18.36 15.712C19.144 15.12 19.776 14.312 20.256 13.288C20.736 12.248 20.976 11.12 20.976 9.904C20.976 7.76 20.2 6.032 18.648 4.72C17.112 3.392 15.056 2.728 12.48 2.728C9.872 2.728 7.648 3.488 5.808 5.008C3.392 7.04 2.184 9.696 2.184 12.976C2.184 15.536 3.04 17.584 4.752 19.12C6.48 20.672 8.8 21.448 11.712 21.448C12.976 21.448 14.24 21.248 15.504 20.848C16.768 20.464 17.936 19.904 19.008 19.168L19.344 19.696C17.056 21.424 14.528 22.288 11.76 22.288C8.832 22.288 6.408 21.56 4.488 20.104C2.136 18.296 0.96 15.864 0.96 12.808C0.96 10.232 1.736 7.984 3.288 6.064C5.592 3.248 8.696 1.84 12.6 1.84C13.88 1.84 15.072 2.016 16.176 2.368C17.296 2.704 18.264 3.192 19.08 3.832C21.112 5.4 22.128 7.384 22.128 9.784C22.128 12.552 21.176 14.688 19.272 16.192C18.76 16.608 18.192 16.928 17.568 17.152C16.944 17.376 16.32 17.488 15.696 17.488C14.192 17.488 13.44 16.92 13.44 15.784L13.488 15.304C12.704 16.76 11.568 17.488 10.08 17.488C7.632 17.488 6.408 16.208 6.408 13.648C6.408 11.824 6.928 10.296 7.968 9.064C9.024 7.816 10.304 7.192 11.808 7.192C13.328 7.192 14.328 7.864 14.808 9.208L15.528 7.672H16.464ZM11.832 8.056C10.632 8.056 9.632 8.6 8.832 9.688C8.032 10.76 7.632 12.104 7.632 13.72C7.632 14.632 7.856 15.344 8.304 15.856C8.752 16.368 9.376 16.624 10.176 16.624C11.056 16.624 11.824 16.344 12.48 15.784C13.152 15.224 13.6 14.456 13.824 13.48L14.568 10.456C14.216 8.856 13.304 8.056 11.832 8.056ZM28.3174 19C26.8454 16.728 25.7174 14.152 24.9334 11.272C24.1654 8.392 23.7814 5.336 23.7814 2.104L23.8054 0.759999H25.4854L25.4374 2.488C25.4374 6.92 26.3574 11.312 28.1974 15.664L31.9894 6.04L35.3014 15.664C37.4294 10.8 38.4934 6.128 38.4934 1.648L38.4694 0.759999H40.1014V1.312C40.1014 4.608 39.6694 7.768 38.8054 10.792C37.9574 13.8 36.7254 16.536 35.1094 19L31.8934 9.952L28.3174 19ZM51.4858 8.968V0.759999H53.0938V19H51.4858V10.504H43.6618V19H42.0538V0.759999H43.6618V8.968H51.4858ZM55.8144 19V0.759999H57.4944V19H55.8144ZM59.1379 2.128C59.8099 1.6 60.5699 1.192 61.4179 0.904C62.2819 0.616 63.1699 0.472 64.0819 0.472C64.9459 0.472 65.8179 0.624 66.6979 0.927999C67.5939 1.232 68.3619 1.632 69.0019 2.128L68.3059 3.52C67.3139 2.768 66.1699 2.304 64.8739 2.128V19H63.2659V2.128C61.9859 2.304 60.8499 2.768 59.8579 3.52L59.1379 2.128ZM83.2755 16.096V17.992C81.7395 18.856 80.1955 19.288 78.6435 19.288C75.9875 19.288 73.7795 18.384 72.0195 16.576C70.2755 14.768 69.4035 12.536 69.4035 9.88C69.4035 7.208 70.2755 4.976 72.0195 3.184C73.7795 1.376 75.9875 0.472 78.6435 0.472C80.1955 0.472 81.7395 0.903999 83.2755 1.768V3.688C82.4915 3.08 81.7235 2.648 80.9715 2.392C80.2195 2.12 79.3795 1.984 78.4515 1.984C76.5475 1.984 74.9075 2.624 73.5315 3.904C72.1715 5.184 71.3555 6.888 71.0835 9.016H79.6995V10.6H71.0835C71.2915 12.76 72.0835 14.496 73.4595 15.808C74.8515 17.12 76.5155 17.776 78.4515 17.776C79.3955 17.776 80.2355 17.648 80.9715 17.392C81.7235 17.136 82.4915 16.704 83.2755 16.096ZM95.8241 19C97.4721 17.88 98.2961 16.36 98.2961 14.44C98.2961 13.256 97.7041 12.072 96.5201 10.888C95.7201 10.072 95.2081 9.528 94.9841 9.256C94.1841 8.28 93.7841 7.2 93.7841 6.016C93.7841 4.496 94.2961 3.184 95.3201 2.08C96.3441 0.975999 97.6161 0.423999 99.1361 0.423999C100.144 0.423999 101.152 0.687999 102.16 1.216V2.944C101.296 2.272 100.352 1.936 99.3281 1.936C98.2401 1.936 97.3441 2.312 96.6401 3.064C95.9361 3.816 95.5841 4.752 95.5841 5.872C95.5841 6.576 95.7601 7.232 96.1121 7.84C96.4001 8.352 96.9041 8.944 97.6241 9.616C98.4241 10.368 99.0161 11.128 99.4001 11.896C99.8001 12.648 100 13.488 100 14.416C100 16.08 99.4401 17.608 98.3201 19H95.8241ZM103.905 13.288L103.929 0.759999H105.585V13.624C105.585 14.936 105.881 15.936 106.473 16.624C107.065 17.296 107.833 17.632 108.777 17.632C109.769 17.632 110.561 17.304 111.153 16.648C111.745 15.992 112.041 15.016 112.041 13.72V0.759999H113.697V13.72C113.697 15.496 113.217 16.888 112.257 17.896C111.361 18.824 110.217 19.288 108.825 19.288C107.225 19.288 105.913 18.64 104.889 17.344C104.473 16.8 104.201 16.248 104.073 15.688C103.961 15.128 103.905 14.448 103.905 13.648V13.288ZM116.425 19V0.472C118.553 1.512 120.345 2.864 121.801 4.528C123.273 6.176 124.313 8.024 124.921 10.072L124.705 0.759999H126.337V19H124.705L124.729 17.728C124.729 11.408 122.505 6.64 118.057 3.424V19H116.425ZM130.204 16.744C130.492 16.744 130.748 16.848 130.972 17.056C131.196 17.264 131.308 17.528 131.308 17.848C131.308 18.056 131.26 18.248 131.164 18.424L129.892 20.68H128.98L130.06 19C129.42 18.808 129.1 18.44 129.1 17.896C129.1 17.576 129.204 17.304 129.412 17.08C129.62 16.856 129.884 16.744 130.204 16.744ZM153.736 11.368C155.016 10.088 155.656 8.632 155.656 7C155.656 5.608 155.184 4.448 154.24 3.52C153.312 2.576 152.168 2.104 150.808 2.104C149.464 2.104 148.336 2.568 147.424 3.496C146.512 4.424 146.056 5.6 146.056 7.024C146.056 9.216 147.04 10.856 149.008 11.944L147.712 13.24C145.488 11.608 144.376 9.624 144.376 7.288C144.376 5.304 144.976 3.68 146.176 2.416C147.392 1.136 148.952 0.495999 150.856 0.495999C152.712 0.495999 154.264 1.16 155.512 2.488C156.76 3.816 157.384 5.432 157.384 7.336C157.384 9.224 156.68 10.848 155.272 12.208L150.016 17.296H157.048V19H146.128L153.736 11.368ZM167.894 0.472C170.086 0.472 172.038 1.176 173.75 2.584C175.974 4.44 177.086 6.872 177.086 9.88C177.086 12.2 176.406 14.208 175.046 15.904C173.238 18.16 170.886 19.288 167.99 19.288C166.742 19.288 165.55 19.056 164.414 18.592C163.294 18.128 162.302 17.448 161.438 16.552C159.662 14.744 158.774 12.52 158.774 9.88C158.774 7.576 159.454 5.576 160.814 3.88C161.678 2.792 162.718 1.952 163.934 1.36C165.15 0.768 166.47 0.472 167.894 0.472ZM175.43 9.856C175.43 7.632 174.702 5.768 173.246 4.264C171.79 2.76 170.022 2.008 167.942 2.008C165.814 2.008 164.038 2.76 162.614 4.264C161.19 5.768 160.478 7.632 160.478 9.856C160.478 12.064 161.206 13.928 162.662 15.448C164.134 16.952 165.902 17.704 167.966 17.704C170.062 17.704 171.83 16.952 173.27 15.448C174.71 13.944 175.43 12.08 175.43 9.856ZM187.861 11.368C189.141 10.088 189.781 8.632 189.781 7C189.781 5.608 189.309 4.448 188.365 3.52C187.437 2.576 186.293 2.104 184.933 2.104C183.589 2.104 182.461 2.568 181.549 3.496C180.637 4.424 180.181 5.6 180.181 7.024C180.181 9.216 181.165 10.856 183.133 11.944L181.837 13.24C179.613 11.608 178.501 9.624 178.501 7.288C178.501 5.304 179.101 3.68 180.301 2.416C181.517 1.136 183.077 0.495999 184.981 0.495999C186.837 0.495999 188.389 1.16 189.637 2.488C190.885 3.816 191.509 5.432 191.509 7.336C191.509 9.224 190.805 10.848 189.397 12.208L184.141 17.296H191.173V19H180.253L187.861 11.368ZM201.971 17.392C203.107 17.392 204.067 17.008 204.851 16.24C205.635 15.472 206.027 14.52 206.027 13.384C206.027 11.24 204.811 9.84 202.379 9.184C203.275 8.912 203.979 8.44 204.491 7.768C205.019 7.096 205.283 6.36 205.283 5.56C205.283 4.568 204.955 3.744 204.299 3.088C203.643 2.432 202.803 2.104 201.779 2.104C200.787 2.104 199.963 2.448 199.307 3.136C198.667 3.808 198.347 4.728 198.347 5.896H196.619C196.619 4.28 197.099 2.976 198.059 1.984C199.035 0.975999 200.227 0.472 201.635 0.472C203.187 0.472 204.483 0.984 205.523 2.008C206.563 3.032 207.083 4.288 207.083 5.776C207.083 6.272 206.979 6.8 206.771 7.36C206.563 7.904 206.259 8.488 205.859 9.112C207.187 10.2 207.851 11.576 207.851 13.24C207.851 15 207.291 16.448 206.171 17.584C205.051 18.72 203.667 19.288 202.019 19.288C200.483 19.288 199.155 18.744 198.035 17.656C196.867 16.52 196.283 15.096 196.283 13.384H198.107C198.107 14.6 198.467 15.576 199.187 16.312C199.923 17.032 200.851 17.392 201.971 17.392Z" fill="black" fill-opacity="0.5"/>
</svg>
