<svg width="39" height="39" viewBox="0 0 39 39" fill="none" xmlns="http://www.w3.org/2000/svg">
<path d="M19.7106 38.9058H19.6255C8.98942 38.9058 0.33606 30.2499 0.33606 19.6107V19.5256C0.33606 8.88636 8.98942 0.230469 19.6255 0.230469H19.7106C30.3467 0.230469 39 8.88636 39 19.5256V19.6107C39 30.2499 30.3467 38.9058 19.7106 38.9058ZM19.6255 1.53959C9.71053 1.53959 1.64479 9.60769 1.64479 19.5256V19.6107C1.64479 29.5286 9.71053 37.5967 19.6255 37.5967H19.7106C29.6256 37.5967 37.6913 29.5286 37.6913 19.6107V19.5256C37.6913 9.60769 29.6256 1.53959 19.7106 1.53959H19.6255Z" fill="#383D38"/>
<path d="M24.1153 11.043H15.221C12.7638 11.043 10.7648 13.0426 10.7648 15.5005V23.6399C10.7648 26.0978 12.7638 28.0974 15.221 28.0974H24.1153C26.5725 28.0974 28.5715 26.0978 28.5715 23.6399V15.5005C28.5715 13.0426 26.5725 11.043 24.1153 11.043ZM12.3368 15.5005C12.3368 13.9099 13.6308 12.6154 15.221 12.6154H24.1153C25.7054 12.6154 26.9995 13.9099 26.9995 15.5005V23.6399C26.9995 25.2305 25.7054 26.5249 24.1153 26.5249H15.221C13.6308 26.5249 12.3368 25.2305 12.3368 23.6399V15.5005Z" fill="#383D38"/>
<path d="M19.6676 23.7183C21.9526 23.7183 23.8126 21.8587 23.8126 19.572C23.8126 17.2853 21.9536 15.4258 19.6676 15.4258C17.3816 15.4258 15.5226 17.2853 15.5226 19.572C15.5226 21.8587 17.3816 23.7183 19.6676 23.7183ZM19.6676 16.9992C21.0866 16.9992 22.2406 18.1537 22.2406 19.573C22.2406 20.9924 21.0866 22.1468 19.6676 22.1468C18.2487 22.1468 17.0946 20.9924 17.0946 19.573C17.0946 18.1537 18.2487 16.9992 19.6676 16.9992Z" fill="#383D38"/>
<path d="M24.1969 16.0937C24.8122 16.0937 25.3137 15.593 25.3137 14.9765C25.3137 14.36 24.8132 13.8594 24.1969 13.8594C23.5806 13.8594 23.0801 14.36 23.0801 14.9765C23.0801 15.593 23.5806 16.0937 24.1969 16.0937Z" fill="#383D38"/>
</svg>
