<svg width="40" height="39" viewBox="0 0 40 39" fill="none" xmlns="http://www.w3.org/2000/svg">
<path d="M20.1532 38.9058H20.0681C9.43203 38.9058 0.778687 30.2499 0.778687 19.6107V19.5256C0.778687 8.88636 9.43203 0.230469 20.0681 0.230469H20.1532C30.7893 0.230469 39.4426 8.88636 39.4426 19.5256V19.6107C39.4426 30.2499 30.7893 38.9058 20.1532 38.9058ZM20.0681 1.53959C10.1531 1.53959 2.08742 9.60769 2.08742 19.5256V19.6107C2.08742 29.5286 10.1531 37.5967 20.0681 37.5967H20.1532C30.0682 37.5967 38.1339 29.5286 38.1339 19.6107V19.5256C38.1339 9.60769 30.0682 1.53959 20.1532 1.53959H20.0681Z" fill="#383D38"/>
<path d="M10.1609 18.8575C10.2053 18.8352 10.2497 18.8139 10.293 18.7938C11.0457 18.4428 11.8085 18.1141 12.5701 17.7854C12.6111 17.7854 12.68 17.7373 12.7188 17.7217C12.7777 17.696 12.8365 17.6714 12.8953 17.6457C13.0086 17.5965 13.1218 17.5484 13.234 17.4992C13.4605 17.4019 13.6858 17.3047 13.9123 17.2074C14.3642 17.0129 14.816 16.8184 15.2679 16.6227C16.1716 16.2337 17.0764 15.8435 17.9801 15.4544C18.8839 15.0654 19.7887 14.6752 20.6924 14.2862C21.5961 13.8971 22.5009 13.507 23.4046 13.1179C24.3083 12.7289 25.2132 12.3387 26.1169 11.9497C26.3179 11.8625 26.5355 11.7328 26.7508 11.6948C26.9318 11.6623 27.1083 11.5998 27.2904 11.5651C27.6357 11.4991 28.0165 11.4723 28.3473 11.6165C28.4617 11.6668 28.5671 11.7372 28.6548 11.8256C29.0745 12.2437 29.0157 12.9301 28.9268 13.5182C28.3085 17.6166 27.6901 21.7161 27.0706 25.8146C26.9862 26.3769 26.8707 26.994 26.43 27.3495C26.0569 27.6502 25.5262 27.6838 25.0655 27.5563C24.6048 27.4278 24.1984 27.1583 23.7999 26.8934C22.1468 25.7911 20.4926 24.6888 18.8394 23.5865C18.4464 23.3249 18.009 22.9828 18.0135 22.5076C18.0157 22.2214 18.1855 21.9665 18.3587 21.7396C19.7953 19.8525 21.8681 18.5557 23.4102 16.7558C23.6278 16.502 23.7988 16.0436 23.5001 15.8972C23.3225 15.81 23.1182 15.9285 22.9561 16.0414C20.9177 17.4668 18.8805 18.8933 16.8422 20.3187C16.1772 20.7837 15.4799 21.2622 14.6784 21.3763C13.9612 21.4791 13.2395 21.2779 12.5456 21.0722C11.9639 20.9 11.3832 20.7234 10.8048 20.5411C10.4973 20.445 10.1798 20.341 9.94217 20.123C9.70458 19.905 9.56804 19.5384 9.71126 19.2477C9.80119 19.0655 9.97549 18.9503 10.1587 18.8564L10.1609 18.8575Z" fill="#383D38"/>
</svg>
