<svg width="39" height="39" viewBox="0 0 39 39" fill="none" xmlns="http://www.w3.org/2000/svg">
<path d="M19.3745 38.9058H19.2895C8.65336 38.9058 0 30.2499 0 19.6107V19.5256C0 8.88636 8.65336 0.230469 19.2895 0.230469H19.3745C30.0106 0.230469 38.664 8.88636 38.664 19.5256V19.6107C38.664 30.2499 30.0106 38.9058 19.3745 38.9058ZM19.2895 1.53959C9.37447 1.53959 1.30874 9.60769 1.30874 19.5256V19.6107C1.30874 29.5286 9.37447 37.5967 19.2895 37.5967H19.3745C29.2895 37.5967 37.3552 29.5286 37.3552 19.6107V19.5256C37.3552 9.60769 29.2895 1.53959 19.3745 1.53959H19.2895Z" fill="#383D38"/>
<path d="M22.2277 23.9164C18.4255 23.9164 15.332 20.821 15.331 17.0177C15.332 16.0535 16.1168 15.2695 17.0786 15.2695C17.1775 15.2695 17.2753 15.2779 17.369 15.2945C17.5751 15.3289 17.7708 15.3986 17.9508 15.5038C17.9769 15.5194 17.9946 15.5444 17.9987 15.5736L18.4005 18.1067C18.4057 18.1369 18.3963 18.1661 18.3765 18.1879C18.1548 18.4336 17.8717 18.6106 17.5563 18.6991L17.4044 18.7418L17.4616 18.8886C17.98 20.2088 19.0354 21.2635 20.3563 21.7841L20.503 21.8424L20.5457 21.6904C20.6342 21.3749 20.8111 21.0917 21.0568 20.87C21.0745 20.8533 21.0984 20.845 21.1223 20.845C21.1275 20.845 21.1327 20.845 21.139 20.846L23.6714 21.2479C23.7016 21.2531 23.7266 21.2698 23.7422 21.2958C23.8463 21.4759 23.916 21.6727 23.9514 21.8788C23.968 21.9705 23.9753 22.0673 23.9753 22.1683C23.9753 23.1314 23.1916 23.9154 22.2277 23.9164Z" fill="#383D38"/>
<path d="M28.97 18.7342C28.765 16.4165 27.7033 14.2665 25.9807 12.6808C24.2476 11.0858 21.9994 10.207 19.6481 10.207C14.4875 10.207 10.2887 14.4071 10.2887 19.5692C10.2887 21.3017 10.7664 22.9894 11.6709 24.4595L9.65375 28.9261L16.1123 28.2379C17.2354 28.6981 18.424 28.9313 19.647 28.9313C19.9687 28.9313 20.2986 28.9147 20.6296 28.8803C20.9211 28.8491 21.2156 28.8033 21.505 28.745C25.8266 27.8714 28.9815 24.0347 29.0064 19.6192V19.5692C29.0064 19.2881 28.9939 19.007 28.969 18.7352L28.97 18.7342ZM16.361 26.2774L12.7878 26.6585L13.8547 24.294L13.6413 24.0077C13.6257 23.9869 13.6101 23.966 13.5924 23.9421C12.666 22.6625 12.1768 21.1507 12.1768 19.5702C12.1768 15.4493 15.5284 12.0967 19.6481 12.0967C23.5076 12.0967 26.779 15.1088 27.0944 18.9539C27.111 19.16 27.1204 19.3672 27.1204 19.5713C27.1204 19.6296 27.1194 19.6868 27.1183 19.7483C27.0392 23.1956 24.6317 26.1233 21.2635 26.8688C21.0064 26.9261 20.7431 26.9698 20.4808 26.9979C20.2081 27.0291 19.9281 27.0448 19.6502 27.0448C18.6603 27.0448 17.6986 26.8532 16.7899 26.4742C16.6889 26.4336 16.59 26.3899 16.4974 26.3451L16.3621 26.2795L16.361 26.2774Z" fill="#383D38"/>
</svg>
