<svg width="40" height="39" viewBox="0 0 40 39" fill="none" xmlns="http://www.w3.org/2000/svg">
<path d="M19.8893 38.9058C9.22927 38.9058 0.557373 30.2314 0.557373 19.5681C0.557373 8.90492 9.22927 0.230469 19.8893 0.230469C30.5494 0.230469 39.2213 8.90492 39.2213 19.5681C39.2213 30.2314 30.5494 38.9058 19.8893 38.9058ZM19.8893 1.54319C9.95368 1.54319 1.86971 9.62954 1.86971 19.5681C1.86971 29.5067 9.95368 37.5931 19.8893 37.5931C29.825 37.5931 37.909 29.5067 37.909 19.5681C37.909 9.62954 29.825 1.54319 19.8893 1.54319Z" fill="#383D38"/>
<path d="M28.6222 16.577C28.5084 15.4808 28.2635 14.269 27.362 13.6322C26.6637 13.1384 25.7459 13.1201 24.8892 13.1211C23.078 13.1221 21.2659 13.1242 19.4547 13.1252C17.7127 13.1272 15.9707 13.1282 14.2286 13.1303C13.5009 13.1313 12.7935 13.0745 12.1177 13.3889C11.5373 13.6586 11.083 14.1717 10.8096 14.7426C10.4305 15.5366 10.3512 16.4361 10.3055 17.3142C10.2211 18.9134 10.2303 20.5166 10.3309 22.1148C10.4051 23.2809 10.5931 24.5698 11.4967 25.3131C12.2975 25.9712 13.4277 26.0037 14.4664 26.0047C17.7635 26.0077 21.0616 26.0108 24.3596 26.0128C24.7824 26.0138 25.2235 26.0057 25.6545 25.959C26.5021 25.8678 27.3101 25.6254 27.8549 24.9987C28.4047 24.367 28.546 23.4878 28.6293 22.6553C28.8326 20.6353 28.8306 18.596 28.6222 16.577ZM17.548 22.3987V16.7352L22.4631 19.5665L17.548 22.3987Z" fill="#383D38"/>
</svg>
